<svg width="36" height="36" viewBox="0 0 36 36" fill="none" xmlns="http://www.w3.org/2000/svg">
<path d="M16.3154 18.6299L6.19043 27.6299C6.02259 27.7791 5.80237 27.8555 5.57821 27.8423C5.35404 27.8292 5.1443 27.7275 4.99511 27.5596C4.84593 27.3918 4.76953 27.1716 4.78271 26.9474C4.7959 26.7232 4.89759 26.5135 5.06543 26.3643L14.4873 17.9999L5.06543 9.63134C4.89759 9.48216 4.7959 9.27241 4.78271 9.04825C4.76953 8.82409 4.84593 8.60386 4.99511 8.43603C5.1443 8.2682 5.35404 8.1665 5.57821 8.15332C5.80237 8.14013 6.02259 8.21653 6.19043 8.36572L16.3154 17.3657C16.4052 17.4449 16.4771 17.5423 16.5264 17.6514C16.5756 17.7605 16.6011 17.8788 16.6011 17.9985C16.6011 18.1182 16.5756 18.2366 16.5264 18.3457C16.4771 18.4548 16.4052 18.5522 16.3154 18.6313V18.6299ZM30.3779 26.1562H16.8779C16.6541 26.1562 16.4395 26.2451 16.2813 26.4033C16.1231 26.5615 16.0342 26.7762 16.0342 26.9999C16.0342 27.2237 16.1231 27.4383 16.2813 27.5966C16.4395 27.7548 16.6541 27.8437 16.8779 27.8437H30.3779C30.6017 27.8437 30.8163 27.7548 30.9745 27.5966C31.1328 27.4383 31.2217 27.2237 31.2217 26.9999C31.2217 26.7762 31.1328 26.5615 30.9745 26.4033C30.8163 26.2451 30.6017 26.1562 30.3779 26.1562Z" fill="#F3F3F3"/>
</svg>
