<svg width="24" height="24" viewBox="0 0 24 24" fill="none" xmlns="http://www.w3.org/2000/svg">
<mask id="path-1-inside-1_195101_51592" fill="white">
<path d="M21 12C21 11.8011 20.921 11.6103 20.7803 11.4697C20.6397 11.329 20.4489 11.25 20.25 11.25H3.75C3.55109 11.25 3.36032 11.329 3.21967 11.4697C3.07902 11.6103 3 11.8011 3 12C3 12.1989 3.07902 12.3897 3.21967 12.5303C3.36032 12.671 3.55109 12.75 3.75 12.75H20.25C20.4489 12.75 20.6397 12.671 20.7803 12.5303C20.921 12.3897 21 12.1989 21 12Z"/>
</mask>
<path d="M21 12C21 11.8011 20.921 11.6103 20.7803 11.4697C20.6397 11.329 20.4489 11.25 20.25 11.25H3.75C3.55109 11.25 3.36032 11.329 3.21967 11.4697C3.07902 11.6103 3 11.8011 3 12C3 12.1989 3.07902 12.3897 3.21967 12.5303C3.36032 12.671 3.55109 12.75 3.75 12.75H20.25C20.4489 12.75 20.6397 12.671 20.7803 12.5303C20.921 12.3897 21 12.1989 21 12Z" fill="white"/>
<path d="M21 12H18.8182C18.8182 12.3797 18.969 12.7439 19.2376 13.0124L20.7803 11.4697L22.3231 9.92689C22.8729 10.4767 23.1818 11.2224 23.1818 12H21ZM20.7803 11.4697L19.2376 13.0124C19.5061 13.281 19.8703 13.4318 20.25 13.4318V11.25V9.06818C21.0276 9.06818 21.7733 9.37706 22.3231 9.92689L20.7803 11.4697ZM20.25 11.25V13.4318H3.75V11.25V9.06818H20.25V11.25ZM3.75 11.25V13.4318C4.12974 13.4318 4.49393 13.281 4.76245 13.0124L3.21967 11.4697L1.67689 9.92689C2.22672 9.37707 2.97244 9.06818 3.75 9.06818V11.25ZM3.21967 11.4697L4.76245 13.0124C5.03097 12.7439 5.18182 12.3797 5.18182 12H3H0.818182C0.818182 11.2224 1.12707 10.4767 1.67689 9.92689L3.21967 11.4697ZM3 12H5.18182C5.18182 11.6203 5.03097 11.2561 4.76245 10.9876L3.21967 12.5303L1.67689 14.0731C1.12707 13.5233 0.818182 12.7776 0.818182 12H3ZM3.21967 12.5303L4.76245 10.9876C4.49393 10.719 4.12974 10.5682 3.75 10.5682V12.75V14.9318C2.97243 14.9318 2.22671 14.6229 1.67689 14.0731L3.21967 12.5303ZM3.75 12.75V10.5682H20.25V12.75V14.9318H3.75V12.75ZM20.25 12.75V10.5682C19.8703 10.5682 19.5061 10.719 19.2376 10.9876L20.7803 12.5303L22.3231 14.0731C21.7733 14.6229 21.0276 14.9318 20.25 14.9318V12.75ZM20.7803 12.5303L19.2376 10.9876C18.969 11.2561 18.8182 11.6203 18.8182 12H21H23.1818C23.1818 12.7776 22.8729 13.5233 22.3231 14.0731L20.7803 12.5303Z" fill="#CDCDCD" mask="url(#path-1-inside-1_195101_51592)"/>
</svg>
