<svg width="26" height="26" viewBox="0 0 26 26" fill="none" xmlns="http://www.w3.org/2000/svg">
<path d="M12.4261 1.86222L5.92609 8.36224C5.60879 8.67954 5.60879 9.19399 5.92609 9.51129L7.55127 11.1365C7.86857 11.4538 8.38302 11.4538 8.70032 11.1365L15.2003 4.63645C15.5176 4.31915 15.5176 3.80471 15.2003 3.48741L13.5752 1.86222C13.2579 1.54492 12.7434 1.54492 12.4261 1.86222Z" stroke="white" stroke-width="1.21875" stroke-linecap="round" stroke-linejoin="round"/>
<path d="M21.3636 10.7997L14.8636 17.2997C14.5463 17.617 14.5463 18.1315 14.8636 18.4488L16.4888 20.074C16.8061 20.3913 17.3205 20.3913 17.6378 20.074L24.1378 13.574C24.4551 13.2567 24.4551 12.7422 24.1378 12.4249L22.5127 10.7997C22.1954 10.4824 21.6809 10.4824 21.3636 10.7997Z" stroke="white" stroke-width="1.21875" stroke-linecap="round" stroke-linejoin="round"/>
<path d="M14.793 5.04321L20.9558 11.206" stroke="white" stroke-width="1.21875" stroke-linecap="round" stroke-linejoin="round"/>
<path d="M9.10547 10.7307L15.2683 16.8935" stroke="white" stroke-width="1.21875" stroke-linecap="round" stroke-linejoin="round"/>
<path d="M13.4059 15.0312L6.19499 22.2422C5.87137 22.5647 5.43312 22.7458 4.97624 22.7458C4.51937 22.7458 4.08111 22.5647 3.75749 22.2422C3.43499 21.9186 3.25391 21.4803 3.25391 21.0234C3.25391 20.5666 3.43499 20.1283 3.75749 19.8047L10.9684 12.5938" stroke="white" stroke-width="1.21875" stroke-linecap="round" stroke-linejoin="round"/>
</svg>
