<svg width="26" height="26" viewBox="0 0 26 26" fill="none" xmlns="http://www.w3.org/2000/svg">
<path d="M8.125 17.0625V14.625C8.125 14.194 8.29621 13.7807 8.60095 13.476C8.9057 13.1712 9.31902 13 9.75 13H18.6875C19.1185 13 19.5318 12.8288 19.8365 12.524C20.1413 12.2193 20.3125 11.806 20.3125 11.375V8.9375" stroke="white" stroke-width="1.21875" stroke-linecap="round" stroke-linejoin="round"/>
<path d="M8.125 8.9375V17.0625" stroke="white" stroke-width="1.21875" stroke-linecap="round" stroke-linejoin="round"/>
<path d="M8.125 8.9375C9.47119 8.9375 10.5625 7.84619 10.5625 6.5C10.5625 5.15381 9.47119 4.0625 8.125 4.0625C6.77881 4.0625 5.6875 5.15381 5.6875 6.5C5.6875 7.84619 6.77881 8.9375 8.125 8.9375Z" stroke="white" stroke-width="1.21875" stroke-linecap="round" stroke-linejoin="round"/>
<path d="M20.3125 8.9375C21.6587 8.9375 22.75 7.84619 22.75 6.5C22.75 5.15381 21.6587 4.0625 20.3125 4.0625C18.9663 4.0625 17.875 5.15381 17.875 6.5C17.875 7.84619 18.9663 8.9375 20.3125 8.9375Z" stroke="white" stroke-width="1.21875" stroke-linecap="round" stroke-linejoin="round"/>
<path d="M8.125 21.9375C9.47119 21.9375 10.5625 20.8462 10.5625 19.5C10.5625 18.1538 9.47119 17.0625 8.125 17.0625C6.77881 17.0625 5.6875 18.1538 5.6875 19.5C5.6875 20.8462 6.77881 21.9375 8.125 21.9375Z" stroke="white" stroke-width="1.21875" stroke-linecap="round" stroke-linejoin="round"/>
</svg>
