<svg width="26" height="26" viewBox="0 0 26 26" fill="none" xmlns="http://www.w3.org/2000/svg">
<path d="M23.309 1.625H2.691C2.10226 1.625 1.625 2.10226 1.625 2.691V23.309C1.625 23.8977 2.10226 24.375 2.691 24.375H23.309C23.8977 24.375 24.375 23.8977 24.375 23.309V2.691C24.375 2.10226 23.8977 1.625 23.309 1.625Z" fill="#3178C6"/>
<path fill-rule="evenodd" clip-rule="evenodd" d="M14.8276 19.3078V21.8006C15.2805 22.0241 15.7632 22.1815 16.2608 22.2678C16.8359 22.3739 17.4196 22.4262 18.0044 22.4238C18.5744 22.4265 19.143 22.369 19.7009 22.2523C20.2018 22.1511 20.6797 21.9583 21.1106 21.6836C21.5106 21.4254 21.8403 21.0719 22.0702 20.655C22.4818 19.7915 22.5361 18.8006 22.2213 17.8973C22.0885 17.5596 21.8905 17.2512 21.6388 16.9898C21.3685 16.7118 21.0615 16.472 20.7263 16.2772C20.3404 16.0512 19.9394 15.8519 19.5263 15.6808C19.2013 15.546 18.9088 15.4149 18.6488 15.2876C18.4178 15.177 18.1968 15.0468 17.9882 14.8984C17.8248 14.7838 17.6829 14.6414 17.5689 14.4775C17.4705 14.3288 17.4193 14.1538 17.4219 13.9754C17.4197 13.8112 17.4654 13.65 17.5535 13.5115C17.6491 13.3665 17.7767 13.2453 17.9264 13.1572C18.1095 13.0495 18.3086 12.9718 18.5163 12.9273C18.7713 12.8706 19.0319 12.8434 19.2931 12.846C19.5127 12.8468 19.7321 12.8625 19.9496 12.8932C20.1844 12.9249 20.4168 12.973 20.6451 13.037C20.8772 13.1013 21.1042 13.1828 21.3243 13.2807C21.5379 13.3759 21.7421 13.4907 21.9345 13.6236V11.2974C21.534 11.1459 21.1187 11.037 20.6954 10.9724C20.1843 10.898 19.6682 10.863 19.1517 10.8676C18.5871 10.8645 18.0241 10.9286 17.4747 11.0585C16.978 11.172 16.5058 11.3737 16.0804 11.6541C15.6853 11.9173 15.359 12.2714 15.129 12.6868C14.8852 13.148 14.7646 13.6643 14.7788 14.1858C14.7608 14.8755 14.988 15.5492 15.4199 16.0871C15.9498 16.6835 16.618 17.1408 17.3658 17.4188C17.7071 17.5596 18.0253 17.6975 18.3205 17.8323C18.5869 17.9509 18.8429 18.0914 19.0859 18.2524C19.2819 18.3799 19.454 18.5408 19.5945 18.7277C19.718 18.8973 19.7835 19.1021 19.7814 19.3119C19.7825 19.4691 19.7421 19.6238 19.6644 19.7604C19.578 19.9072 19.4565 20.0303 19.3109 20.1187C19.1287 20.2298 18.9294 20.31 18.7211 20.356C18.4496 20.4166 18.172 20.4453 17.8939 20.4413C17.3482 20.4403 16.8068 20.344 16.2941 20.1569C15.7585 19.9636 15.2619 19.6761 14.8276 19.3078ZM10.6399 13.102H13.8899V11.0488H4.82812V13.102H8.0635V22.2458H10.6399V13.102Z" fill="#F7F8F8"/>
</svg>
