<svg width="26" height="26" viewBox="0 0 26 26" fill="none" xmlns="http://www.w3.org/2000/svg">
<g clip-path="url(#clip0_195101_51449)">
<path d="M7.11671 5.4101H11.1314V16.7783C11.1314 21.9012 8.70076 23.6896 4.8177 23.6896C3.86727 23.6896 2.6514 23.5296 1.85938 23.2625L2.3089 19.9798C2.86332 20.1669 3.57721 20.2999 4.36924 20.2999C6.06032 20.2999 7.11671 19.5257 7.11671 16.7513V5.4101ZM14.6174 19.2338C15.6738 19.7939 17.3649 20.355 19.0816 20.355C20.9311 20.355 21.9083 19.5809 21.9083 18.3807C21.9083 17.2865 21.0628 16.6193 18.9232 15.8722C15.9649 14.805 14.0105 13.1507 14.0105 10.5082C14.0105 7.43959 16.5729 5.11816 20.746 5.11816C22.7795 5.11816 24.233 5.51822 25.2894 6.02533L24.3914 9.28095C23.7043 8.93387 22.4103 8.42677 20.6935 8.42677C18.95 8.42677 18.1045 9.25392 18.1045 10.1611C18.1045 11.3083 19.0816 11.8154 21.4063 12.7225C24.5498 13.8968 26.0022 15.5511 26.0022 18.1125C26.0022 21.1281 23.731 23.6896 18.844 23.6896C16.8105 23.6896 14.8026 23.1295 13.7986 22.5683L14.6174 19.2338Z" fill="#E2E2E2"/>
</g>
<defs>
<clipPath id="clip0_195101_51449">
<rect width="26" height="26" fill="white"/>
</clipPath>
</defs>
</svg>
